<svg xmlns="http://www.w3.org/2000/svg" xmlns:xlink="http://www.w3.org/1999/xlink" width="500" zoomAndPan="magnify" viewBox="0 0 375 374.999991" height="500" preserveAspectRatio="xMidYMid meet" version="1.0"><defs><g/><clipPath id="964faee177"><path d="M 154.925781 120.351562 L 247.425781 120.351562 L 247.425781 154.386719 L 154.925781 154.386719 Z M 154.925781 120.351562 " clip-rule="nonzero"/></clipPath><clipPath id="8604d16050"><path d="M 242 90.1875 L 292.175781 90.1875 L 292.175781 136 L 242 136 Z M 242 90.1875 " clip-rule="nonzero"/></clipPath></defs><path fill="#ffffff" d="M 248.199219 128.78125 L 248.195312 128.765625 L 248.195312 128.769531 Z M 248.199219 128.78125 " fill-opacity="1" fill-rule="nonzero"/><path fill="#ffffff" d="M 211.265625 137.378906 C 211.261719 137.371094 211.257812 137.359375 211.25 137.347656 C 211.253906 137.359375 211.257812 137.371094 211.265625 137.378906 " fill-opacity="1" fill-rule="nonzero"/><path fill="#ffffff" d="M 191.105469 143.730469 C 191.105469 143.734375 191.105469 143.738281 191.109375 143.738281 L 191.105469 143.730469 " fill-opacity="1" fill-rule="nonzero"/><g clip-path="url(#964faee177)"><path fill="#ffffff" d="M 155.511719 148.375 C 155.84375 149.183594 156.324219 149.941406 156.90625 150.582031 C 157.492188 151.226562 158.167969 151.75 158.871094 152.179688 C 160.28125 153.03125 161.777344 153.515625 163.253906 153.832031 C 164.730469 154.144531 166.199219 154.292969 167.652344 154.355469 C 169.105469 154.417969 170.546875 154.378906 171.976562 154.292969 C 174.832031 154.113281 177.636719 153.710938 180.40625 153.167969 C 181.785156 152.894531 183.160156 152.59375 184.519531 152.253906 C 185.882812 151.921875 187.238281 151.554688 188.582031 151.164062 C 190.679688 150.558594 192.757812 149.890625 194.8125 149.175781 C 196.144531 148.710938 197.46875 148.230469 198.789062 147.734375 C 200.648438 147.03125 202.496094 146.300781 204.332031 145.554688 C 207.402344 144.296875 210.449219 142.988281 213.476562 141.648438 C 214.707031 141.109375 215.933594 140.558594 217.15625 140.011719 C 217.972656 139.648438 218.785156 139.28125 219.597656 138.914062 C 224.644531 136.628906 229.667969 134.289062 234.660156 131.882812 C 237.992188 130.273438 241.347656 128.640625 244.660156 126.984375 C 245.265625 126.679688 246.261719 126.175781 246.921875 125.839844 C 247.363281 125.613281 247.445312 125.003906 247.066406 124.6875 C 247.042969 124.671875 247.019531 124.652344 246.996094 124.640625 C 246.410156 124.28125 245.671875 124.273438 245.074219 124.617188 C 244.726562 124.816406 244.351562 125.03125 244.085938 125.183594 C 240.785156 127.09375 237.445312 128.933594 234.058594 130.679688 C 229.152344 133.214844 224.164062 135.582031 219.078125 137.730469 C 218.722656 137.882812 218.367188 138.027344 218.011719 138.175781 C 217.828125 138.253906 217.648438 138.328125 217.464844 138.402344 C 217.386719 138.433594 217.300781 138.464844 217.222656 138.5 C 217.101562 138.550781 216.976562 138.601562 216.851562 138.648438 C 216.730469 138.699219 216.613281 138.75 216.492188 138.796875 C 216.398438 138.835938 216.308594 138.871094 216.21875 138.910156 C 216 138.996094 215.78125 139.085938 215.5625 139.171875 C 215.558594 139.171875 215.558594 139.175781 215.554688 139.175781 C 215.242188 139.296875 214.929688 139.421875 214.613281 139.546875 C 214.300781 139.667969 213.980469 139.765625 213.664062 139.886719 C 213.351562 140.007812 213.035156 140.125 212.714844 140.21875 L 212.707031 140.222656 C 209.710938 141.46875 206.636719 142.449219 203.5625 143.4375 C 201.398438 144.136719 199.214844 144.765625 197.042969 145.421875 L 197.039062 145.421875 C 195.679688 145.835938 194.320312 146.246094 192.933594 146.554688 C 192.933594 146.558594 192.933594 146.558594 192.929688 146.558594 L 192.914062 146.5625 C 191.203125 147.082031 189.453125 147.488281 187.714844 147.90625 C 187.050781 148.066406 186.390625 148.230469 185.726562 148.382812 C 185.058594 148.535156 184.398438 148.6875 183.730469 148.828125 C 182.398438 149.113281 181.066406 149.390625 179.734375 149.632812 C 177.066406 150.117188 174.390625 150.519531 171.730469 150.726562 C 170.398438 150.828125 169.074219 150.871094 167.761719 150.847656 C 166.453125 150.820312 165.160156 150.71875 163.929688 150.484375 C 162.695312 150.253906 161.515625 149.902344 160.539062 149.347656 C 159.558594 148.796875 158.816406 148.066406 158.390625 147.140625 C 157.957031 146.222656 157.855469 145.089844 157.996094 143.902344 C 158.136719 142.710938 158.515625 141.484375 159 140.28125 C 159.484375 139.074219 160.09375 137.890625 160.761719 136.734375 C 161.429688 135.570312 162.167969 134.4375 162.9375 133.324219 C 164.488281 131.089844 166.199219 128.945312 167.972656 126.847656 C 169.753906 124.753906 171.605469 122.707031 173.496094 120.683594 L 173.222656 120.390625 C 171.054688 122.125 168.957031 123.953125 166.945312 125.882812 C 164.933594 127.8125 163.007812 129.847656 161.21875 132.023438 C 159.445312 134.214844 157.785156 136.539062 156.515625 139.183594 C 155.886719 140.507812 155.359375 141.921875 155.089844 143.46875 C 154.957031 144.242188 154.890625 145.050781 154.949219 145.882812 C 155.003906 146.710938 155.183594 147.566406 155.511719 148.375 " fill-opacity="1" fill-rule="nonzero"/></g><path fill="#ffffff" d="M 282.226562 136.324219 C 282.226562 136.332031 282.226562 136.335938 282.226562 136.335938 C 282.230469 136.339844 282.230469 136.34375 282.230469 136.351562 L 282.269531 136.324219 C 282.253906 136.324219 282.238281 136.324219 282.226562 136.324219 " fill-opacity="1" fill-rule="nonzero"/><g clip-path="url(#8604d16050)"><path fill="#ffffff" d="M 242.78125 118.234375 L 246.070312 120.269531 L 246.960938 120.820312 C 246.960938 120.820312 249.125 122.164062 249.140625 122.171875 C 249.640625 122.484375 250.09375 122.878906 250.371094 123.402344 C 250.617188 123.863281 250.691406 124.378906 250.792969 124.882812 C 250.949219 125.664062 251.105469 126.449219 251.261719 127.226562 L 251.261719 127.234375 L 252.148438 131.640625 C 252.265625 132.230469 252.734375 132.453125 253.195312 132.132812 C 253.652344 131.8125 254.042969 131.054688 254.054688 130.449219 L 254.164062 125.71875 L 254.164062 125.714844 L 254.230469 122.539062 L 258.828125 119.578125 L 259.164062 119.359375 L 259.167969 119.359375 L 272.257812 110.925781 L 272.375 111.480469 L 272.375 111.484375 L 272.378906 111.492188 L 272.425781 111.484375 L 273.257812 114.757812 L 273.261719 114.777344 L 277.625 134.546875 C 277.71875 134.957031 277.9375 135.230469 278.246094 135.136719 L 278.261719 135.132812 C 278.378906 135.097656 278.511719 135.042969 278.640625 134.953125 L 280.703125 133.507812 C 281.183594 133.171875 281.566406 132.429688 281.546875 131.84375 L 281.375 126.3125 C 281.519531 126.285156 281.625 126.167969 281.75 126.078125 L 282.660156 125.445312 L 282.902344 125.273438 C 283.382812 124.941406 283.601562 124.375 283.265625 123.894531 L 283.023438 123.546875 C 282.914062 123.390625 282.761719 123.261719 282.589844 123.171875 C 282.226562 122.980469 281.765625 122.945312 281.441406 123.175781 L 281.230469 123.320312 L 281.117188 118.5 C 281.261719 118.472656 281.453125 118.480469 281.582031 118.394531 L 282.058594 118.058594 L 282.699219 117.613281 C 283.179688 117.277344 283.304688 116.589844 282.96875 116.109375 L 282.726562 115.761719 C 282.507812 115.449219 282.097656 115.230469 281.707031 115.210938 C 281.5 115.199219 281.296875 115.246094 281.128906 115.363281 L 280.957031 115.480469 L 280.800781 110.042969 L 280.796875 109.796875 L 280.6875 105.984375 L 280.671875 105.445312 L 287.285156 101.292969 L 287.335938 101.261719 C 288.851562 100.28125 291.28125 97.621094 292.015625 95.660156 C 292.265625 94.992188 292.316406 94.402344 292.066406 93.992188 C 291.832031 93.609375 291.347656 93.417969 290.726562 93.363281 C 288.738281 93.195312 285.304688 94.441406 283.753906 95.445312 C 283.726562 95.464844 281.40625 97.203125 278.019531 99.753906 C 277.90625 99.839844 277.796875 99.921875 277.683594 100.007812 C 277.515625 100.136719 277.339844 100.269531 277.160156 100.402344 L 276.832031 100.265625 L 276.609375 100.179688 L 273.570312 98.9375 L 267.773438 96.578125 L 267.949219 96.457031 C 268.429688 96.121094 268.574219 95.464844 268.242188 94.988281 L 267.996094 94.636719 C 267.660156 94.15625 267.070312 94.171875 266.589844 94.503906 L 265.472656 95.285156 C 265.34375 95.375 265.179688 95.40625 265.105469 95.535156 L 260.519531 93.609375 L 260.726562 93.464844 C 261.207031 93.128906 261.375 92.496094 261.039062 92.015625 L 260.792969 91.664062 C 260.460938 91.183594 259.742188 91.03125 259.261719 91.363281 L 258.109375 92.167969 C 257.980469 92.257812 257.878906 92.378906 257.804688 92.503906 L 252.667969 90.417969 C 252.125 90.199219 251.261719 90.253906 250.78125 90.589844 L 248.71875 92.027344 C 248.238281 92.359375 248.273438 92.933594 248.765625 93.253906 L 265.097656 103.824219 L 268.386719 105.957031 L 269.15625 106.453125 C 268.90625 106.640625 268.65625 106.832031 268.40625 107.019531 C 261.542969 112.191406 254.449219 117.542969 251.996094 119.394531 L 249.132812 118.414062 L 245.894531 117.304688 L 244.558594 116.847656 C 243.988281 116.652344 243.144531 116.757812 242.6875 117.074219 C 242.226562 117.394531 242.269531 117.917969 242.78125 118.234375 " fill-opacity="1" fill-rule="nonzero"/></g><g fill="#ffffff" fill-opacity="1"><g transform="translate(82.671371, 336.457699)"><g><path d="M 19.9375 -147.8125 C 19.9375 -168.632812 22.535156 -188.398438 27.734375 -207.109375 C 32.941406 -225.816406 41.191406 -242.421875 52.484375 -256.921875 C 63.773438 -271.429688 78.664062 -282.894531 97.15625 -291.3125 C 115.644531 -299.726562 138.175781 -303.9375 164.75 -303.9375 C 173.394531 -303.9375 180.925781 -303.546875 187.34375 -302.765625 C 193.769531 -301.992188 200.96875 -300.722656 208.9375 -298.953125 L 208.9375 -268.390625 C 200.738281 -270.160156 193.425781 -271.546875 187 -272.546875 C 180.582031 -273.546875 172.835938 -274.046875 163.765625 -274.046875 C 144.492188 -274.046875 128.101562 -271.21875 114.59375 -265.5625 C 101.09375 -259.914062 90.132812 -252.054688 81.71875 -241.984375 C 73.300781 -231.910156 66.878906 -220.394531 62.453125 -207.4375 C 58.023438 -194.488281 55.253906 -180.707031 54.140625 -166.09375 L 181.359375 -166.09375 L 181.359375 -136.1875 L 53.8125 -136.1875 C 54.914062 -113.15625 58.734375 -89.625 65.265625 -65.59375 C 71.804688 -41.570312 80.164062 -19.707031 90.34375 0 L 55.8125 0 C 49.832031 -12.625 44.070312 -27.128906 38.53125 -43.515625 C 33 -59.898438 28.515625 -77.0625 25.078125 -95 C 21.648438 -112.9375 19.9375 -130.539062 19.9375 -147.8125 Z M 19.9375 -147.8125 "/></g></g></g></svg>